Coordinates
version=1
nRows=10
nColumns=40
inDegrees=yes

Units are S.I. units (second, meters, Newtons, ...)
Angles are in degrees.

endheader
time	pelvis_tilt	pelvis_list	pelvis_rotation	pelvis_tx	pelvis_ty	pelvis_tz	hip_flexion_r	hip_adduction_r	hip_rotation_r	knee_angle_r	knee_angle_r_beta	ankle_angle_r	subtalar_angle_r	mtp_angle_r	hip_flexion_l	hip_adduction_l	hip_rotation_l	knee_angle_l	knee_angle_l_beta	ankle_angle_l	subtalar_angle_l	mtp_angle_l	lumbar_extension	lumbar_bending	lumbar_rotation	arm_flex_r	arm_add_r	arm_rot_r	elbow_flex_r	pro_sup_r	wrist_flex_r	wrist_dev_r	arm_flex_l	arm_add_l	arm_rot_l	elbow_flex_l	pro_sup_l	wrist_flex_l	wrist_dev_l
     42.07000000	     -2.48561108	     -2.76317892	      0.55117937	      0.88426608	      0.92780410	      0.45225304	     24.88641319	     -6.69785657	     -3.26725449	     71.09348401	     71.09348401	     -8.12046821	    -17.71738854	      2.73057457	     14.18758573	     -2.95239311	     -4.26678243	     24.94577816	     24.94577816	     15.13221987	    -12.79720431	      2.41559691	     -8.67043588	      5.80860092	      2.18726308	     -7.89953198	    -12.41882943	    -23.29113079	     19.36516845	     38.27007967	      0.00000000	      0.00000000	     14.48078477	    -15.43091770	     -8.02149175	     61.47183757	     37.24389122	      0.00000000	      0.00000000
     42.08328571	     -2.41833721	     -2.61961793	      0.16230940	      0.88365391	      0.92872660	      0.45255314	     26.42841063	     -6.80646285	     -3.42693803	     71.56946002	     71.56946002	     -7.43456250	    -18.46116179	      2.98991007	     13.15475662	     -2.82036557	     -4.64603921	     24.11618517	     24.11618517	     15.29494307	    -12.64265474	      2.52673144	     -8.87900326	      5.57839777	      2.07264034	     -8.71781733	    -12.31110096	    -23.09265300	     18.94101280	     38.37804634	      0.00000000	      0.00000000	     15.40650254	    -15.91153317	     -8.36377932	     62.32703686	     37.39763932	      0.00000000	      0.00000000
     42.09657143	     -2.36451679	     -2.66472157	     -0.14121953	      0.88298167	      0.92952261	      0.45282940	     27.85267876	     -6.80741852	     -3.85847484	     71.80381728	     71.80381728	     -6.67224162	    -18.90939100	      3.17756072	     12.30530324	     -2.88610740	     -4.88510287	     23.56718189	     23.56718189	     15.50751067	    -12.55499242	      2.57687840	     -9.05381517	      5.58920206	      1.79084487	     -9.50799344	    -12.29126836	    -23.06125001	     18.68550287	     38.42449640	      0.00000000	      0.00000000	     16.34621118	    -16.56518831	     -8.69630746	     62.99551110	     37.47827633	      0.00000000	      0.00000000
     42.10985714	     -2.21108375	     -2.61852950	     -0.53937831	      0.88240335	      0.93054019	      0.45332141	     29.26401776	     -6.63908843	     -3.97766757	     72.03123977	     72.03123977	     -4.39695616	    -18.98770258	      8.32956233	     11.12482044	     -2.83413814	     -5.22556767	     22.60888208	     22.60888208	     15.51845890	    -12.47766914	      2.47968204	     -9.48906684	      5.41084159	      1.83052474	    -10.59327210	    -12.14411342	    -22.60560363	     19.09719793	     38.79685094	      0.00000000	      0.00000000	     16.47176799	    -16.70145903	     -9.83326216	     66.38806723	     38.04767439	      0.00000000	      0.00000000
     42.12314286	     -2.21120074	     -2.62415571	     -0.87920151	      0.88165763	      0.93124866	      0.45376570	     30.62569777	     -6.50329614	     -4.28005400	     71.75723361	     71.75723361	     -2.76055608	    -19.10051062	     11.24233702	     10.23863665	     -2.85666509	     -5.59708551	     21.83673103	     21.83673103	     15.58251575	    -12.24988885	      2.32812368	     -9.65501425	      5.34657936	      1.36812152	    -11.21621737	    -12.15393385	    -21.93626550	     19.36230868	     39.29107128	      0.00000000	      0.00000000	     16.83130937	    -17.16993163	    -10.87241701	     67.85969760	     38.74277493	      0.00000000	      0.00000000
     42.13642857	     -2.15761483	     -2.67550657	     -1.19865276	      0.88093500	      0.93204203	      0.45422177	     31.62391502	     -6.40788600	     -4.78080653	     70.82738473	     70.82738473	     -1.80502286	    -19.21062343	     11.52754582	      9.28080241	     -2.90101602	     -5.89909107	     21.03520723	     21.03520723	     15.71637824	    -12.05654437	      2.44569107	     -9.86443976	      5.34734754	      1.33951885	    -11.78954392	    -12.11079645	    -21.82527750	     19.24893028	     39.40145834	      0.00000000	      0.00000000	     17.64746516	    -17.46289734	    -11.19198903	     68.67570857	     38.90231522	      0.00000000	      0.00000000
     42.14971429	     -2.23435812	     -2.82786036	     -1.50893452	      0.88001151	      0.93256899	      0.45487660	     32.63349926	     -6.08722112	     -5.25138723	     69.46567041	     69.46567041	     -0.41955892	    -19.24202989	     13.22200330	      8.58025821	     -3.07395066	     -6.12635978	     20.39992534	     20.39992534	     15.74282059	    -11.94773195	      2.33801057	    -10.04492202	      5.45378700	      1.13781989	    -12.30589151	    -12.13081831	    -21.48491019	     19.76100819	     39.83187593	      0.00000000	      0.00000000	     17.91411791	    -17.69238942	    -12.12236699	     70.49585666	     39.50168728	      0.00000000	      0.00000000
     42.16300000	     -2.39696923	     -2.98554136	     -1.73844016	      0.87902638	      0.93285505	      0.45551535	     33.45897046	     -5.82587503	     -5.87820032	     67.47669997	     67.47669997	      0.51021996	    -19.25086029	     13.19738838	      8.02347126	     -3.24674288	     -6.29610380	     19.84029374	     19.84029374	     15.91396650	    -11.83030840	      2.38175812	    -10.06044818	      5.58582719	      1.01869958	    -12.50427633	    -12.05260337	    -21.44130707	     19.73025936	     39.87862669	      0.00000000	      0.00000000	     18.65407683	    -17.94471970	    -12.29715602	     70.98275257	     39.57561263	      0.00000000	      0.00000000
     42.17628571	     -2.44267121	     -3.20183602	     -2.00391740	      0.87811352	      0.93332916	      0.45631720	     33.88865875	     -5.41179353	     -6.45284298	     64.87325744	     64.87325744	      1.46096973	    -19.22315867	     13.17848916	      7.27894107	     -3.49062011	     -6.53879956	     19.18640339	     19.18640339	     16.02498334	    -11.65764046	      2.42513386	    -10.25372555	      5.79711211	      1.10896156	    -12.65434988	    -12.03925156	    -21.39436727	     19.77263706	     39.95228916	      0.00000000	      0.00000000	     19.24836858	    -17.91183590	    -12.52646729	     71.77386163	     39.68544274	      0.00000000	      0.00000000
     42.18957143	     -2.65940883	     -3.39825649	     -2.24011115	      0.87700964	      0.93335020	      0.45720962	     34.30934459	     -4.96086734	     -6.97574319	     61.78007053	     61.78007053	      2.33700113	    -19.14479052	     13.07423161	      6.83162781	     -3.72893434	     -6.73608854	     18.70154596	     18.70154596	     16.15292754	    -11.53779580	      2.39906307	    -10.27643247	      5.98429016	      1.15194566	    -12.59632064	    -11.97023632	    -21.36071025	     19.90617785	     40.00535521	      0.00000000	      0.00000000	     19.82960242	    -17.94401608	    -12.72366147	     72.46733551	     39.77204180	      0.00000000	      0.00000000
